<svg width="235" height="30" viewBox="0 0 235 30" fill="none" xmlns="http://www.w3.org/2000/svg">
<path d="M5.46076 29.5913H0.744655C0.636239 29.5913 0.582031 29.5232 0.582031 29.3869L0.663343 0.674387C0.663343 0.538147 0.717551 0.470027 0.825968 0.470027H5.50141C5.60983 0.470027 5.66404 0.538147 5.66404 0.674387V10.5858L12.1893 0.633515C12.2978 0.524523 12.3994 0.470027 12.4943 0.470027H17.2713C17.3933 0.470027 17.4204 0.524523 17.3527 0.633515L10.1565 12.1798L18.2268 29.4278C18.2945 29.5368 18.2268 29.5913 18.0235 29.5913H12.9415C12.806 29.5913 12.7246 29.5368 12.6975 29.4278L7.06667 17.1253L5.62338 19.4142V29.3869C5.62338 29.5232 5.56917 29.5913 5.46076 29.5913Z" fill="#FF3D81"/>
<path d="M28.7632 29.5913H24.0471C23.9116 29.5913 23.8438 29.5232 23.8438 29.3869L23.8845 0.633515C23.8845 0.524523 23.9387 0.470027 24.0471 0.470027H28.7225C28.8309 0.470027 28.8852 0.524523 28.8852 0.633515L28.9258 29.3869C28.9258 29.5232 28.8716 29.5913 28.7632 29.5913Z" fill="#FF3D81"/>
<path d="M40.8649 29.5913H36.6976C36.4808 29.5913 36.3724 29.4959 36.3724 29.3052L36.3317 0.797003C36.3317 0.579019 36.4401 0.470027 36.657 0.470027H40.4177L47.4511 16.9619L47.2479 0.797003C47.2479 0.579019 47.3698 0.470027 47.6138 0.470027H51.7404C51.903 0.470027 51.9843 0.579019 51.9843 0.797003L52.025 29.346C52.025 29.5095 51.9572 29.5913 51.8217 29.5913H48.1626L40.9462 14.1826L41.2511 29.2643C41.2511 29.4823 41.1224 29.5913 40.8649 29.5913Z" fill="#FF3D81"/>
<path d="M67.0945 30C65.6174 30 64.2554 29.6185 63.0086 28.8556C61.7754 28.0926 60.7793 27.0777 60.0204 25.8106C59.275 24.53 58.9023 23.1267 58.9023 21.6008L58.943 8.33787C58.943 6.78474 59.3157 5.38828 60.061 4.1485C60.7928 2.8951 61.7821 1.89373 63.0289 1.14441C64.2757 0.381471 65.6309 0 67.0945 0C68.6124 0 69.9743 0.374659 71.1805 1.12398C72.4001 1.8733 73.3759 2.88147 74.1077 4.1485C74.8531 5.40191 75.2257 6.79837 75.2257 8.33787L75.2664 21.6008C75.2664 23.1267 74.9005 24.5232 74.1687 25.7902C73.4233 27.0708 72.434 28.0926 71.2008 28.8556C69.9676 29.6185 68.5988 30 67.0945 30ZM67.0945 24.9523C67.9348 24.9523 68.6666 24.6117 69.29 23.9305C69.9134 23.2357 70.225 22.4591 70.225 21.6008L70.1844 8.33787C70.1844 7.41144 69.893 6.62807 69.3103 5.98774C68.7276 5.34741 67.989 5.02725 67.0945 5.02725C66.2408 5.02725 65.5089 5.3406 64.8991 5.9673C64.2893 6.59401 63.9843 7.3842 63.9843 8.33787V21.6008C63.9843 22.5136 64.2893 23.3038 64.8991 23.9714C65.5089 24.6253 66.2408 24.9523 67.0945 24.9523Z" fill="#FF3D81"/>
<path d="M87.0428 29.5913H82.3267C82.2183 29.5913 82.1641 29.5232 82.1641 29.3869L82.2454 0.633515C82.2454 0.524523 82.2996 0.470027 82.408 0.470027H87.49C87.5985 0.470027 87.6933 0.524523 87.7746 0.633515L91.576 6.15123L95.357 0.633515C95.4383 0.524523 95.5399 0.470027 95.6619 0.470027H100.764C100.886 0.470027 100.947 0.524523 100.947 0.633515L101.029 29.3869C101.029 29.5232 100.974 29.5913 100.866 29.5913H96.1498C96.0414 29.5913 95.9872 29.5232 95.9872 29.3869L95.9465 8.03134L91.576 14.4074L87.2461 8.03134L87.2055 29.3869C87.2055 29.5232 87.1512 29.5913 87.0428 29.5913Z" fill="#FF3D81"/>
<path d="M115.976 30C114.499 30 113.137 29.6185 111.89 28.8556C110.657 28.0926 109.661 27.0777 108.902 25.8106C108.157 24.53 107.784 23.1267 107.784 21.6008L107.825 8.33787C107.825 6.78474 108.197 5.38828 108.943 4.1485C109.674 2.8951 110.664 1.89373 111.911 1.14441C113.157 0.381471 114.513 0 115.976 0C117.494 0 118.856 0.374659 120.062 1.12398C121.282 1.8733 122.257 2.88147 122.989 4.1485C123.735 5.40191 124.107 6.79837 124.107 8.33787L124.148 21.6008C124.148 23.1267 123.782 24.5232 123.05 25.7902C122.305 27.0708 121.316 28.0926 120.082 28.8556C118.849 29.6185 117.48 30 115.976 30ZM115.976 24.9523C116.816 24.9523 117.548 24.6117 118.172 23.9305C118.795 23.2357 119.107 22.4591 119.107 21.6008L119.066 8.33787C119.066 7.41144 118.775 6.62807 118.192 5.98774C117.609 5.34741 116.871 5.02725 115.976 5.02725C115.122 5.02725 114.391 5.3406 113.781 5.9673C113.171 6.59401 112.866 7.3842 112.866 8.33787V21.6008C112.866 22.5136 113.171 23.3038 113.781 23.9714C114.391 24.6253 115.122 24.9523 115.976 24.9523Z" fill="#FF3D81"/>
<path d="M135.579 29.5913H131.412C131.195 29.5913 131.086 29.4959 131.086 29.3052L131.046 0.797003C131.046 0.579019 131.154 0.470027 131.371 0.470027H135.132L142.165 16.9619L141.962 0.797003C141.962 0.579019 142.084 0.470027 142.328 0.470027H146.454C146.617 0.470027 146.698 0.579019 146.698 0.797003L146.739 29.346C146.739 29.5095 146.671 29.5913 146.536 29.5913H142.877L135.66 14.1826L135.965 29.2643C135.965 29.4823 135.836 29.5913 135.579 29.5913Z" fill="#FF3D81"/>
<path d="M161.178 30C159.701 30 158.339 29.6185 157.092 28.8556C155.859 28.0926 154.87 27.0777 154.125 25.8106C153.393 24.53 153.027 23.1267 153.027 21.6008V19.6798C153.027 19.53 153.095 19.455 153.23 19.455H157.906C158.014 19.455 158.068 19.53 158.068 19.6798V21.6008C158.068 22.5136 158.373 23.3038 158.983 23.9714C159.593 24.6253 160.325 24.9523 161.178 24.9523C162.046 24.9523 162.784 24.6185 163.394 23.951C164.004 23.2698 164.309 22.4864 164.309 21.6008C164.309 20.579 163.645 19.6866 162.317 18.9237C162.1 18.7875 161.815 18.624 161.463 18.4332C161.124 18.2289 160.718 17.9973 160.243 17.7384C159.769 17.4796 159.308 17.2275 158.861 16.9823C158.414 16.7234 157.98 16.4782 157.56 16.2466C156.042 15.3474 154.911 14.2234 154.165 12.8747C153.433 11.5123 153.067 9.98638 153.067 8.297C153.067 6.74387 153.447 5.3406 154.206 4.08719C154.965 2.84741 155.954 1.86649 157.174 1.14441C158.407 0.408719 159.742 0.0408719 161.178 0.0408719C162.656 0.0408719 164.011 0.408719 165.244 1.14441C166.477 1.89373 167.46 2.88828 168.192 4.12807C168.937 5.36785 169.31 6.75749 169.31 8.297V11.7302C169.31 11.8392 169.255 11.8937 169.147 11.8937H164.471C164.363 11.8937 164.309 11.8392 164.309 11.7302L164.268 8.297C164.268 7.31608 163.963 6.51907 163.353 5.90599C162.744 5.29292 162.019 4.98638 161.178 4.98638C160.325 4.98638 159.593 5.31335 158.983 5.9673C158.373 6.62125 158.068 7.39782 158.068 8.297C158.068 9.20981 158.258 9.97275 158.637 10.5858C159.03 11.1989 159.742 11.7847 160.772 12.3433C160.88 12.3978 161.131 12.5341 161.524 12.752C161.917 12.97 162.351 13.2153 162.825 13.4877C163.313 13.7466 163.753 13.985 164.146 14.203C164.539 14.4074 164.776 14.53 164.858 14.5708C166.24 15.3474 167.331 16.3011 168.131 17.4319C168.944 18.5627 169.35 19.9523 169.35 21.6008C169.35 23.1948 168.984 24.6253 168.252 25.8924C167.507 27.1594 166.518 28.1608 165.285 28.8965C164.051 29.6322 162.683 30 161.178 30Z" fill="#FF3D81"/>
<path d="M184.867 29.5913H180.171C180.049 29.5913 179.988 29.5232 179.988 29.3869V5.51771H174.581C174.445 5.51771 174.378 5.44959 174.378 5.31335L174.418 0.633515C174.418 0.524523 174.473 0.470027 174.581 0.470027H190.396C190.545 0.470027 190.62 0.524523 190.62 0.633515V5.31335C190.62 5.44959 190.566 5.51771 190.457 5.51771H184.989L185.03 29.3869C185.03 29.5232 184.975 29.5913 184.867 29.5913Z" fill="#FF3D81"/>
<path d="M210.019 29.5913H196.562C196.454 29.5913 196.399 29.5232 196.399 29.3869L196.44 0.633515C196.44 0.524523 196.494 0.470027 196.603 0.470027H209.979C210.087 0.470027 210.141 0.538147 210.141 0.674387V5.35422C210.141 5.46322 210.087 5.51771 209.979 5.51771H201.441V12.0572H209.979C210.087 12.0572 210.141 12.1117 210.141 12.2207L210.182 16.9619C210.182 17.0708 210.128 17.1253 210.019 17.1253H201.441V24.4414H210.019C210.128 24.4414 210.182 24.5095 210.182 24.6458V29.4278C210.182 29.5368 210.128 29.5913 210.019 29.5913Z" fill="#FF3D81"/>
<path d="M222.507 29.5913H217.791C217.683 29.5913 217.628 29.5232 217.628 29.3869L217.71 0.633515C217.71 0.524523 217.764 0.470027 217.872 0.470027H226.288C227.792 0.470027 229.175 0.837875 230.435 1.57357C231.695 2.30926 232.698 3.297 233.444 4.53678C234.203 5.77657 234.582 7.17984 234.582 8.74659C234.582 9.76839 234.426 10.6948 234.114 11.5259C233.803 12.3569 233.437 13.0586 233.017 13.6308C232.61 14.203 232.238 14.6253 231.899 14.8978C233.403 16.5736 234.155 18.5422 234.155 20.8038L234.196 29.3869C234.196 29.5232 234.128 29.5913 233.993 29.5913H229.276C229.168 29.5913 229.114 29.5504 229.114 29.4687V20.8038C229.114 19.7956 228.761 18.9237 228.057 18.188C227.352 17.4523 226.485 17.0845 225.455 17.0845H222.71L222.67 29.3869C222.67 29.5232 222.616 29.5913 222.507 29.5913ZM226.288 5.47684H222.71V12.0572H226.288C227.142 12.0572 227.901 11.7371 228.565 11.0967C229.243 10.4564 229.581 9.67302 229.581 8.74659C229.581 7.86104 229.256 7.09809 228.606 6.45777C227.955 5.80381 227.183 5.47684 226.288 5.47684Z" fill="#FF3D81"/>
</svg>
