<svg width="18" height="28" viewBox="0 0 18 28" fill="none" xmlns="http://www.w3.org/2000/svg">
<path d="M5.27573 28H0.738488C0.634183 28 0.582031 27.9345 0.582031 27.8035L0.66026 0.196491C0.66026 0.0654971 0.712412 0 0.816716 0H5.31485C5.41915 0 5.4713 0.0654971 5.4713 0.196491V9.72632L11.7491 0.157193C11.8534 0.0523977 11.9512 0 12.0425 0H16.6384C16.7557 0 16.7818 0.0523977 16.7166 0.157193L9.79342 11.2589L17.5576 27.8428C17.6228 27.9476 17.5576 28 17.362 28H12.4727C12.3424 28 12.2641 27.9476 12.2381 27.8428L6.82074 16.014L5.43219 18.2147V27.8035C5.43219 27.9345 5.38004 28 5.27573 28Z" fill="#FF3D81"/>
</svg>
